<?xml version="1.0" encoding="utf-8"?>
<!-- Generator: Adobe Illustrator 22.1.0, SVG Export Plug-In . SVG Version: 6.00 Build 0)  -->
<svg version="1.1" xmlns="http://www.w3.org/2000/svg" xmlns:xlink="http://www.w3.org/1999/xlink" x="0px" y="0px"
	 viewBox="0 0 80 80" style="enable-background:new 0 0 80 80;" xml:space="preserve">
<style type="text/css">
	.st0{display:none;}
	.st1{opacity:0.17;fill:#5C59ED;}
	.st2{opacity:0.24;fill:#5C59ED;}
	.st3{fill:none;stroke:#5C59ED;stroke-width:3.0492;stroke-linecap:round;stroke-linejoin:round;stroke-miterlimit:10;}
	.st4{opacity:0.25;fill:#5C59ED;}
	.st5{fill:#1F1F3A;}
</style>
<g id="Layer_1" class="st0">
</g>
<g id="Layer_2">
	<polygon class="st1" points="40.2,69.8 13.1,54.8 13.1,47.2 30.6,36.4 40.1,48.9 49.5,35 67.3,47.2 67.3,55 	"/>
	<path class="st2" d="M68.8,26.7c0,0,0-0.1,0-0.1c0-0.2-0.1-0.3-0.1-0.5c0,0,0,0,0,0c0,0,0,0,0,0c-0.1-0.2-0.2-0.3-0.3-0.4
		c0,0-0.1-0.1-0.1-0.1c0,0-0.1-0.1-0.1-0.1L41,9.6c-0.5-0.3-1.1-0.3-1.5,0L12.4,25.4c0,0-0.1,0.1-0.1,0.1c0,0-0.1,0.1-0.1,0.1
		c-0.1,0.1-0.3,0.3-0.3,0.4c0,0,0,0,0,0c0,0,0,0,0,0c-0.1,0.1-0.1,0.3-0.1,0.5c0,0,0,0.1,0,0.1c0,0,0,0.1,0,0.1v25.2
		c0,0.8,0.7,1.5,1.5,1.5c0.8,0,1.5-0.7,1.5-1.5V29.3l24,13.3v19.2c0,0.8,0.7,1.5,1.5,1.5c0.8,0,1.5-0.7,1.5-1.5V42.6l24-13.3v22.1
		c0,0.8,0.7,1.5,1.5,1.5s1.5-0.7,1.5-1.5L68.8,26.7C68.8,26.7,68.8,26.7,68.8,26.7z M40.2,12.7l24,14L40.2,40l-24-13.2L40.2,12.7z"
		/>
	<g>
		<polyline class="st3" points="30.6,36.4 13.1,47.2 40.1,61.8 67.3,47.2 50.2,36.7 		"/>
		<polyline class="st3" points="67.3,47.2 67.3,55 40.2,69.8 13.1,54.8 13.1,47.2 		"/>
	</g>
	<ellipse class="st4" cx="40.2" cy="49.2" rx="7.2" ry="2.9"/>
	<path id="XMLID_1054_" class="st5" d="M47.4,23.1c-1.8-1.6-4.4-2.5-7.2-2.5s-5.4,0.9-7.2,2.5c-2.2,2-3.4,5-3.4,8.7
		c0,8.1,9.3,17.5,9.7,17.9c0.2,0.2,0.6,0.4,0.9,0.4s0.7-0.1,0.9-0.4c0.4-0.4,9.7-9.8,9.7-17.9C50.8,28.1,49.6,25.1,47.4,23.1z
		 M40.2,46.9c-0.9-1-2.2-2.6-3.6-4.5c-2.9-4.1-4.4-7.8-4.4-10.6c0-8,6.1-8.7,8-8.7c7.4,0,8,6.6,8,8.7C48.2,37.4,42.5,44.4,40.2,46.9
		z M40.2,26.1c-2.8,0-5.1,2.3-5.1,5.2s2.3,5.2,5.1,5.2c2.8,0,5.1-2.3,5.1-5.2S43,26.1,40.2,26.1z M40.2,34.2c-1.6,0-2.9-1.3-2.9-2.9
		s1.3-2.9,2.9-2.9c1.6,0,2.9,1.3,2.9,2.9S41.8,34.2,40.2,34.2z"/>
</g>
</svg>
